# xmcd CD database file
#
# Track frame offsets:
#	150
#	15236
#	32915
#	67897
#	93402
#	107050
#	124673
#	142619
#	171105
#	174538
#	214550
#	239371
#	278215
#
# Disc length: 3956 seconds
#
# Revision: 1
# Processed by: cddbd v1.5.2PL0 Copyright (c) Steve Scherf et al.
# Submitted via: CDex 1.51
#
DISCID=a40f720d
DTITLE=Yonder Mountain String Band - Mountain Tracks Volume 3 - Disc 2
DYEAR=2004
DGENRE=Bluegrass
TTITLE0=Queen of the Earth
TTITLE1=Train Bound For Glory Land
TTITLE2=Little Rabbit
TTITLE3=Left Me in a Hole
TTITLE4=Old Plank Road
TTITLE5=Deep Pockets
TTITLE6=Maid of the Canyon
TTITLE7=Too Late Now
TTITLE8=Yee Haw Factor
TTITLE9=Kentucky Mandolin
TTITLE10=Peace of Mind
TTITLE11=Snow on the Pines
TTITLE12=Peace of Mind
EXTD=YEAR: 2004
EXTT0=
EXTT1=
EXTT2=
EXTT3=
EXTT4=
EXTT5=
EXTT6=
EXTT7=
EXTT8=
EXTT9=
EXTT10=
EXTT11=
EXTT12=
PLAYORDER=
